# WaveFront *.obj file (generated by Cinema 4D)

mtllib ./dlypidorasa.mtl

v -1.930628 3.970887 -6.538811
v -1.930628 5.970887 -6.538811
v 0.069372 3.970887 -6.538811
v 0.069372 5.970887 -6.538811
v 0.069372 3.970887 -8.538811
v 0.069372 5.970887 -8.538811
v -1.930628 3.970887 -8.538811
v -1.930628 5.970887 -8.538811
# 8 vertices

vn 0.000000 0.000000 1.000000
vn 1.000000 0.000000 0.000000
vn 0.000000 0.000000 -1.000000
vn -1.000000 0.000000 0.000000
vn 0.000000 1.000000 0.000000
vn 0.000000 -1.000000 0.000000
# 6 normals

vt 0.000000 0.000000 0.000000
vt 0.000000 1.000000 0.000000
vt 1.000000 1.000000 0.000000
vt 1.000000 0.000000 0.000000
# 4 texture coordinates

g ?????
usemtl default
f 3/4/1 4/3/1 2/2/1 1/1/1
f 5/4/2 6/3/2 4/2/2 3/1/2
f 7/4/3 8/3/3 6/2/3 5/1/3
f 1/4/4 2/3/4 8/2/4 7/1/4
f 4/4/5 6/3/5 8/2/5 2/1/5
f 5/4/6 3/3/6 1/2/6 7/1/6

v -11.246033 2.231442 1.813064
v -11.246033 4.231442 1.813064
v -9.246033 2.231442 1.813064
v -9.246033 4.231442 1.813064
v -9.246033 2.231442 -0.186936
v -9.246033 4.231442 -0.186936
v -11.246033 2.231442 -0.186936
v -11.246033 4.231442 -0.186936
# 8 vertices

# 0 normal

# 0 texture coordinate

g ?????_1
usemtl default
f 11/4/1 12/3/1 10/2/1 9/1/1
f 13/4/2 14/3/2 12/2/2 11/1/2
f 15/4/3 16/3/3 14/2/3 13/1/3
f 9/4/4 10/3/4 16/2/4 15/1/4
f 12/4/5 14/3/5 16/2/5 10/1/5
f 13/4/6 11/3/6 9/2/6 15/1/6

v -14.152086 -0.875027 6.270522
v -14.152086 1.124973 6.270522
v -12.152086 -0.875027 6.270522
v -12.152086 1.124973 6.270522
v -12.152086 -0.875027 4.270522
v -12.152086 1.124973 4.270522
v -14.152086 -0.875027 4.270522
v -14.152086 1.124973 4.270522
# 8 vertices

# 0 normal

# 0 texture coordinate

g ?????_2
usemtl default
f 19/4/1 20/3/1 18/2/1 17/1/1
f 21/4/2 22/3/2 20/2/2 19/1/2
f 23/4/3 24/3/3 22/2/3 21/1/3
f 17/4/4 18/3/4 24/2/4 23/1/4
f 20/4/5 22/3/5 24/2/5 18/1/5
f 21/4/6 19/3/6 17/2/6 23/1/6

v -8.819152 -1.000000 1.000000
v -8.819152 1.000000 1.000000
v -6.819152 -1.000000 1.000000
v -6.819152 1.000000 1.000000
v -6.819152 -1.000000 -1.000000
v -6.819152 1.000000 -1.000000
v -8.819152 -1.000000 -1.000000
v -8.819152 1.000000 -1.000000
# 8 vertices

# 0 normal

# 0 texture coordinate

g ?????_3
usemtl default
f 27/4/1 28/3/1 26/2/1 25/1/1
f 29/4/2 30/3/2 28/2/2 27/1/2
f 31/4/3 32/3/3 30/2/3 29/1/3
f 25/4/4 26/3/4 32/2/4 31/1/4
f 28/4/5 30/3/5 32/2/5 26/1/5
f 29/4/6 27/3/6 25/2/6 31/1/6

v -9.582194 -6.937887 2.645138
v -9.582194 -4.937887 2.645138
v -7.582194 -6.937887 2.645138
v -7.582194 -4.937887 2.645138
v -7.582194 -6.937887 0.645138
v -7.582194 -4.937887 0.645138
v -9.582194 -6.937887 0.645138
v -9.582194 -4.937887 0.645138
# 8 vertices

# 0 normal

# 0 texture coordinate

g ?????_4
usemtl default
f 35/4/1 36/3/1 34/2/1 33/1/1
f 37/4/2 38/3/2 36/2/2 35/1/2
f 39/4/3 40/3/3 38/2/3 37/1/3
f 33/4/4 34/3/4 40/2/4 39/1/4
f 36/4/5 38/3/5 40/2/5 34/1/5
f 37/4/6 35/3/6 33/2/6 39/1/6

v -9.582194 0.420077 -5.183087
v -9.582194 2.420077 -5.183087
v -7.582194 0.420077 -5.183087
v -7.582194 2.420077 -5.183087
v -7.582194 0.420077 -7.183087
v -7.582194 2.420077 -7.183087
v -9.582194 0.420077 -7.183087
v -9.582194 2.420077 -7.183087
# 8 vertices

# 0 normal

# 0 texture coordinate

g ?????_5
usemtl default
f 43/4/1 44/3/1 42/2/1 41/1/1
f 45/4/2 46/3/2 44/2/2 43/1/2
f 47/4/3 48/3/3 46/2/3 45/1/3
f 41/4/4 42/3/4 48/2/4 47/1/4
f 44/4/5 46/3/5 48/2/5 42/1/5
f 45/4/6 43/3/6 41/2/6 47/1/6

v 2.861074 -0.214382 8.115167
v 2.861074 1.785618 8.115167
v 4.861074 -0.214382 8.115167
v 4.861074 1.785618 8.115167
v 4.861074 -0.214382 6.115167
v 4.861074 1.785618 6.115167
v 2.861074 -0.214382 6.115167
v 2.861074 1.785618 6.115167
# 8 vertices

# 0 normal

# 0 texture coordinate

g ?????_6
usemtl default
f 51/4/1 52/3/1 50/2/1 49/1/1
f 53/4/2 54/3/2 52/2/2 51/1/2
f 55/4/3 56/3/3 54/2/3 53/1/3
f 49/4/4 50/3/4 56/2/4 55/1/4
f 52/4/5 54/3/5 56/2/5 50/1/5
f 53/4/6 51/3/6 49/2/6 55/1/6

v 2.861074 1.140145 1.000000
v 2.861074 3.140145 1.000000
v 4.861074 1.140145 1.000000
v 4.861074 3.140145 1.000000
v 4.861074 1.140145 -1.000000
v 4.861074 3.140145 -1.000000
v 2.861074 1.140145 -1.000000
v 2.861074 3.140145 -1.000000
# 8 vertices

# 0 normal

# 0 texture coordinate

g ?????_7
usemtl default
f 59/4/1 60/3/1 58/2/1 57/1/1
f 61/4/2 62/3/2 60/2/2 59/1/2
f 63/4/3 64/3/3 62/2/3 61/1/3
f 57/4/4 58/3/4 64/2/4 63/1/4
f 60/4/5 62/3/5 64/2/5 58/1/5
f 61/4/6 59/3/6 57/2/6 63/1/6

v -1.000000 -1.000000 1.000000
v -1.000000 1.000000 1.000000
v 1.000000 -1.000000 1.000000
v 1.000000 1.000000 1.000000
v 1.000000 -1.000000 -1.000000
v 1.000000 1.000000 -1.000000
v -1.000000 -1.000000 -1.000000
v -1.000000 1.000000 -1.000000
# 8 vertices

# 0 normal

# 0 texture coordinate

g ?????_8
usemtl default
f 67/4/1 68/3/1 66/2/1 65/1/1
f 69/4/2 70/3/2 68/2/2 67/1/2
f 71/4/3 72/3/3 70/2/3 69/1/3
f 65/4/4 66/3/4 72/2/4 71/1/4
f 68/4/5 70/3/5 72/2/5 66/1/5
f 69/4/6 67/3/6 65/2/6 71/1/6

